<svg xml:space="preserve" viewBox="124.32840000000002 54.74235000000001 61.408 69.54599999999999" width="61.408" y="0px" x="0px" xmlns:xlink="http://www.w3.org/1999/xlink" xmlns="http://www.w3.org/2000/svg" id="Layer_1" version="1.1" style="max-height: 500px" height="69.54599999999999">
<path d="M168.000000,202.000000 &#10;&#9;C112.000008,202.000000 56.500011,202.000000 1.000015,202.000000 &#10;&#9;C1.000010,135.000015 1.000010,68.000031 1.000005,1.000033 &#10;&#9;C102.333305,1.000022 203.666611,1.000022 304.999939,1.000011 &#10;&#9;C304.999939,67.999962 304.999939,134.999924 304.999969,201.999939 &#10;&#9;C259.500000,202.000000 214.000000,202.000000 168.000000,202.000000 &#10;M120.993874,105.940125 &#10;&#9;C121.113312,109.183128 119.811081,113.156281 125.225082,113.593163 &#10;&#9;C125.806023,113.640045 126.631477,115.080658 126.731812,115.945679 &#10;&#9;C127.411179,121.802849 130.002457,120.555786 134.018921,117.758652 &#10;&#9;C149.679611,117.838943 165.340286,117.919243 181.091476,118.531700 &#10;&#9;C181.374207,118.344872 181.656952,118.158043 182.609268,117.675240 &#10;&#9;C184.066666,116.099167 185.524063,114.523094 187.387650,113.866806 &#10;&#9;C187.528305,115.431168 187.668961,116.995529 187.809616,118.559891 &#10;&#9;C188.350494,118.736794 188.891357,118.913689 189.432236,119.090591 &#10;&#9;C189.954559,117.526428 190.916702,115.966072 190.930283,114.397507 &#10;&#9;C191.049271,100.659668 191.012650,86.920326 190.974014,73.181564 &#10;&#9;C190.970749,72.018639 190.617981,70.856697 190.427582,69.694298 &#10;&#9;C190.025284,69.491753 189.623001,69.289207 189.220703,69.086662 &#10;&#9;C188.433411,70.122253 187.646103,71.157845 186.314331,71.784645 &#10;&#9;C182.780579,66.265343 178.724533,61.358475 171.982300,58.796352 &#10;&#9;C170.597214,57.864170 169.244324,56.188446 167.821518,56.126812 &#10;&#9;C161.193375,55.839699 154.539017,56.190281 147.906952,55.952606 &#10;&#9;C138.393692,55.611679 128.893188,54.923771 119.382133,54.497944 &#10;&#9;C118.550346,54.460705 117.335495,55.039848 116.885735,55.720612 &#10;&#9;C114.310966,59.617882 111.883644,63.614731 109.512642,67.640427 &#10;&#9;C109.318970,67.969254 109.813995,69.163116 110.176094,69.260674 &#10;&#9;C110.852036,69.442795 111.718941,69.248207 112.410973,68.971642 &#10;&#9;C114.004654,68.334763 115.541153,67.554802 117.470413,66.661842 &#10;&#9;C117.692268,71.451218 117.626312,75.084267 118.152031,78.629578 &#10;&#9;C118.335663,79.867989 119.977699,80.890129 120.976944,82.945755 &#10;&#9;C120.979767,90.319572 120.982590,97.693390 120.993874,105.940125 &#10;M106.687668,71.438622 &#10;&#9;C106.305649,72.030373 105.923637,72.622124 105.541618,73.213875 &#10;&#9;C106.095543,73.336327 106.649475,73.458786 107.203400,73.581238 &#10;&#9;C107.231575,72.902786 107.259758,72.224342 106.687668,71.438622 &#10;M175.811829,56.545452 &#10;&#9;C176.256210,56.875717 176.700592,57.205978 177.144974,57.536247 &#10;&#9;C177.252762,57.253605 177.360550,56.970963 177.468338,56.688320 &#10;&#9;C177.039093,56.530281 176.609848,56.372242 175.811829,56.545452 &#10;z" stroke="none" opacity="1.000000" fill="#1E2225"/>
<path d="M186.981476,112.947021 &#10;&#9;C185.524063,114.523094 184.066666,116.099167 182.039062,117.806076 &#10;&#9;C181.468872,117.936905 181.000977,117.999535 181.000977,117.999535 &#10;&#9;C165.340286,117.919243 149.679611,117.838943 133.427246,117.463699 &#10;&#9;C129.393356,113.107140 125.951149,109.045525 122.572464,104.520584 &#10;&#9;C122.676292,90.706497 122.716599,77.355736 122.908020,63.635315 &#10;&#9;C125.454742,62.108410 127.824196,60.016224 130.250290,59.948349 &#10;&#9;C144.159943,59.559181 158.083054,59.650566 172.001587,59.578880 &#10;&#9;C178.724533,61.358475 182.780579,66.265343 186.552673,72.293045 &#10;&#9;C186.854523,86.183304 186.917999,99.565163 186.981476,112.947021 &#10;M137.994064,113.928604 &#10;&#9;C150.997330,113.929718 164.000580,113.930824 177.660278,114.110138 &#10;&#9;C178.105453,114.048615 178.550613,113.987091 179.809433,114.122704 &#10;&#9;C180.825775,113.110657 182.707062,112.114304 182.725754,111.084167 &#10;&#9;C182.931091,99.762848 182.937881,88.434296 182.692200,77.114342 &#10;&#9;C182.668808,76.036140 180.584671,74.099113 179.440918,74.086884 &#10;&#9;C166.293030,73.946373 153.141968,74.101234 139.140396,74.003258 &#10;&#9;C138.343628,74.828468 136.853760,75.653976 136.854126,76.478828 &#10;&#9;C136.859528,88.710945 137.062469,100.942963 137.994064,113.928604 &#10;z" stroke="none" opacity="1.000000" fill="#FBFBFB"/>
<path d="M171.991943,59.187614 &#10;&#9;C158.083054,59.650566 144.159943,59.559181 130.250290,59.948349 &#10;&#9;C127.824196,60.016224 125.454742,62.108410 122.546066,63.775146 &#10;&#9;C121.673248,70.193443 121.313484,76.102234 120.953720,82.011032 &#10;&#9;C119.977699,80.890129 118.335663,79.867989 118.152031,78.629578 &#10;&#9;C117.626312,75.084267 117.692268,71.451218 117.470413,66.661842 &#10;&#9;C115.541153,67.554802 114.004654,68.334763 112.410973,68.971642 &#10;&#9;C111.718941,69.248207 110.852036,69.442795 110.176094,69.260674 &#10;&#9;C109.813995,69.163116 109.318970,67.969254 109.512642,67.640427 &#10;&#9;C111.883644,63.614731 114.310966,59.617882 116.885735,55.720612 &#10;&#9;C117.335495,55.039848 118.550346,54.460705 119.382133,54.497944 &#10;&#9;C128.893188,54.923771 138.393692,55.611679 147.906952,55.952606 &#10;&#9;C154.539017,56.190281 161.193375,55.839699 167.821518,56.126812 &#10;&#9;C169.244324,56.188446 170.597214,57.864170 171.991943,59.187614 &#10;z" stroke="none" opacity="1.000000" fill="#1C2023"/>
<path d="M187.184570,113.406914 &#10;&#9;C186.917999,99.565163 186.854523,86.183304 186.824921,72.497437 &#10;&#9;C187.646103,71.157845 188.433411,70.122253 189.220703,69.086662 &#10;&#9;C189.623001,69.289207 190.025284,69.491753 190.427582,69.694298 &#10;&#9;C190.617981,70.856697 190.970749,72.018639 190.974014,73.181564 &#10;&#9;C191.012650,86.920326 191.049271,100.659668 190.930283,114.397507 &#10;&#9;C190.916702,115.966072 189.954559,117.526428 189.432236,119.090591 &#10;&#9;C188.891357,118.913689 188.350494,118.736794 187.809616,118.559891 &#10;&#9;C187.668961,116.995529 187.528305,115.431168 187.184570,113.406914 &#10;z" stroke="none" opacity="1.000000" fill="#171B1E"/>
<path d="M120.965332,82.478394 &#10;&#9;C121.313484,76.102234 121.673248,70.193443 122.394951,64.144814 &#10;&#9;C122.716599,77.355736 122.676292,90.706497 122.318161,104.523010 &#10;&#9;C121.662033,105.014915 121.323723,105.041061 120.985420,105.067207 &#10;&#9;C120.982590,97.693390 120.979767,90.319572 120.965332,82.478394 &#10;z" stroke="none" opacity="1.000000" fill="#171B1E"/>
<path d="M120.989647,105.503662 &#10;&#9;C121.323723,105.041061 121.662033,105.014915 122.254639,104.986343 &#10;&#9;C125.951149,109.045525 129.393356,113.107140 132.963776,117.472397 &#10;&#9;C130.002457,120.555786 127.411179,121.802849 126.731812,115.945679 &#10;&#9;C126.631477,115.080658 125.806023,113.640045 125.225082,113.593163 &#10;&#9;C119.811081,113.156281 121.113312,109.183128 120.989647,105.503662 &#10;z" stroke="none" opacity="1.000000" fill="#1C2023"/>
<path d="M106.987808,71.492256 &#10;&#9;C107.259758,72.224342 107.231575,72.902786 107.203400,73.581238 &#10;&#9;C106.649475,73.458786 106.095543,73.336327 105.541618,73.213875 &#10;&#9;C105.923637,72.622124 106.305649,72.030373 106.987808,71.492256 &#10;z" stroke="none" opacity="1.000000" fill="#1C2023"/>
<path d="M175.996216,56.379829 &#10;&#9;C176.609848,56.372242 177.039093,56.530281 177.468338,56.688320 &#10;&#9;C177.360550,56.970963 177.252762,57.253605 177.144974,57.536247 &#10;&#9;C176.700592,57.205978 176.256210,56.875717 175.996216,56.379829 &#10;z" stroke="none" opacity="1.000000" fill="#1C2023"/>
<path d="M181.046234,118.265617 &#10;&#9;C181.000977,117.999535 181.468872,117.936905 181.704285,117.954056 &#10;&#9;C181.656952,118.158043 181.374207,118.344872 181.046234,118.265617 &#10;z" stroke="none" opacity="1.000000" fill="#D3D4D4"/>
<path d="M177.003845,113.931938 &#10;&#9;C164.000580,113.930824 150.997330,113.929718 138.113541,113.454384 &#10;&#9;C138.824158,111.243370 139.903641,109.513138 139.927109,107.768707 &#10;&#9;C140.077667,96.573364 139.996674,85.374916 139.991760,74.177490 &#10;&#9;C153.141968,74.101234 166.293030,73.946373 179.440918,74.086884 &#10;&#9;C180.584671,74.099113 182.668808,76.036140 182.692200,77.114342 &#10;&#9;C182.937881,88.434296 182.931091,99.762848 182.725754,111.084167 &#10;&#9;C182.707062,112.114304 180.825775,113.110657 179.404205,113.596512 &#10;&#9;C178.871292,110.949295 178.743576,108.828278 178.615875,106.707260 &#10;&#9;C178.078537,106.734505 177.541183,106.761749 177.003845,106.788986 &#10;&#9;C177.003845,109.169975 177.003845,111.550957 177.003845,113.931938 &#10;M148.299286,106.218414 &#10;&#9;C149.659149,106.251602 151.018997,106.284782 152.378860,106.317970 &#10;&#9;C152.215775,104.783928 152.052673,103.249878 152.135910,101.109001 &#10;&#9;C154.495422,98.628052 156.854935,96.147110 158.703873,94.203011 &#10;&#9;C154.691986,89.663887 151.087646,85.585876 147.301224,81.301842 &#10;&#9;C146.280838,82.387405 145.174194,83.368065 145.265442,83.496307 &#10;&#9;C147.776245,87.024734 150.408966,90.466400 153.124771,94.059250 &#10;&#9;C150.868591,96.435913 148.517471,98.583611 146.621185,101.077202 &#10;&#9;C145.894806,102.032394 146.207489,103.777779 146.487900,105.515076 &#10;&#9;C146.840424,105.656891 147.192932,105.798698 147.528778,105.652596 &#10;&#9;C147.528778,105.652596 147.812866,105.602905 148.299286,106.218414 &#10;M160.136368,105.360863 &#10;&#9;C164.978378,105.613838 169.820404,105.866821 174.662415,106.119804 &#10;&#9;C174.861404,105.654594 175.060394,105.189392 175.259399,104.724182 &#10;&#9;C174.553436,103.862946 173.889969,102.303314 173.134415,102.257370 &#10;&#9;C169.160614,102.015701 165.159912,102.078972 161.179382,102.266556 &#10;&#9;C160.703461,102.288979 160.293442,103.710106 160.136368,105.360863 &#10;M179.007111,91.412292 &#10;&#9;C179.007111,86.372787 179.007111,81.333282 179.007111,76.293777 &#10;&#9;C178.762802,76.297760 178.518478,76.301743 178.274170,76.305725 &#10;&#9;C178.274170,84.098625 178.274170,91.891518 178.274170,99.684410 &#10;&#9;C178.518539,99.686127 178.762909,99.687851 179.007278,99.689568 &#10;&#9;C179.007278,97.249939 179.007278,94.810318 179.007111,91.412292 &#10;z" stroke="none" opacity="1.000000" fill="#202427"/>
<path d="M139.566086,74.090370 &#10;&#9;C139.996674,85.374916 140.077667,96.573364 139.927109,107.768707 &#10;&#9;C139.903641,109.513138 138.824158,111.243370 137.725830,113.077591 &#10;&#9;C137.062469,100.942963 136.859528,88.710945 136.854126,76.478828 &#10;&#9;C136.853760,75.653976 138.343628,74.828468 139.566086,74.090370 &#10;z" stroke="none" opacity="1.000000" fill="#171B1E"/>
<path d="M177.332062,114.021042 &#10;&#9;C177.003845,111.550957 177.003845,109.169975 177.003845,106.788986 &#10;&#9;C177.541183,106.761749 178.078537,106.734505 178.615875,106.707260 &#10;&#9;C178.743576,108.828278 178.871292,110.949295 178.997391,113.497940 &#10;&#9;C178.550613,113.987091 178.105453,114.048615 177.332062,114.021042 &#10;z" stroke="none" opacity="1.000000" fill="#171B1E"/>
<path d="M146.046677,105.163086 &#10;&#9;C146.207489,103.777779 145.894806,102.032394 146.621185,101.077202 &#10;&#9;C148.517471,98.583611 150.868591,96.435913 153.124771,94.059250 &#10;&#9;C150.408966,90.466400 147.776245,87.024734 145.265442,83.496307 &#10;&#9;C145.174194,83.368065 146.280838,82.387405 147.301224,81.301842 &#10;&#9;C151.087646,85.585876 154.691986,89.663887 158.703873,94.203011 &#10;&#9;C156.854935,96.147110 154.495422,98.628052 151.724030,101.548553 &#10;&#9;C150.145737,103.193039 148.979309,104.397972 147.812866,105.602905 &#10;&#9;C147.812866,105.602905 147.528778,105.652596 147.337494,105.577423 &#10;&#9;C146.779694,105.389191 146.413193,105.276138 146.046677,105.163086 &#10;z" stroke="none" opacity="1.000000" fill="#ECEDEC"/>
<path d="M159.994629,104.921890 &#10;&#9;C160.293442,103.710106 160.703461,102.288979 161.179382,102.266556 &#10;&#9;C165.159912,102.078972 169.160614,102.015701 173.134415,102.257370 &#10;&#9;C173.889969,102.303314 174.553436,103.862946 175.259399,104.724182 &#10;&#9;C175.060394,105.189392 174.861404,105.654594 174.662415,106.119804 &#10;&#9;C169.820404,105.866821 164.978378,105.613838 159.994629,104.921890 &#10;z" stroke="none" opacity="1.000000" fill="#D3D4D4"/>
<path d="M179.007202,91.891495 &#10;&#9;C179.007278,94.810318 179.007278,97.249939 179.007278,99.689568 &#10;&#9;C178.762909,99.687851 178.518539,99.686127 178.274170,99.684410 &#10;&#9;C178.274170,91.891518 178.274170,84.098625 178.274170,76.305725 &#10;&#9;C178.518478,76.301743 178.762802,76.297760 179.007111,76.293777 &#10;&#9;C179.007111,81.333282 179.007111,86.372787 179.007202,91.891495 &#10;z" stroke="none" opacity="1.000000" fill="#171B1E"/>
<path d="M148.056076,105.910660 &#10;&#9;C148.979309,104.397972 150.145737,103.193039 151.600876,101.851974 &#10;&#9;C152.052673,103.249878 152.215775,104.783928 152.378860,106.317970 &#10;&#9;C151.018997,106.284782 149.659149,106.251602 148.056076,105.910660 &#10;z" stroke="none" opacity="1.000000" fill="#171B1E"/>
<path d="M146.267288,105.339081 &#10;&#9;C146.413193,105.276138 146.779694,105.389191 147.345825,105.721375 &#10;&#9;C147.192932,105.798698 146.840424,105.656891 146.267288,105.339081 &#10;z" stroke="none" opacity="1.000000" fill="#171B1E"/>
</svg>